<svg xmlns="http://www.w3.org/2000/svg" xmlns:xlink="http://www.w3.org/1999/xlink" width="2000" zoomAndPan="magnify" viewBox="0 0 1500 1499.999933" height="2000" preserveAspectRatio="xMidYMid meet" version="1.0"><defs><filter x="0%" y="0%" width="100%" height="100%" id="e67dd1a409"><feColorMatrix values="0 0 0 0 1 0 0 0 0 1 0 0 0 0 1 0 0 0 1 0" color-interpolation-filters="sRGB"/></filter><g/><mask id="dc84dd48cd"><g filter="url(#e67dd1a409)"><rect x="-150" width="1800" fill="#000000" y="-149.999993" height="1799.99992" fill-opacity="0.5"/></g></mask><clipPath id="2d11edbadd"><path d="M 0.121094 0.679688 L 1277.878906 0.679688 L 1277.878906 989.960938 L 0.121094 989.960938 Z M 0.121094 0.679688 " clip-rule="nonzero"/></clipPath><clipPath id="4c5cf7d547"><rect x="0" width="1278" y="0" height="990"/></clipPath><clipPath id="7155ccbf45"><rect x="0" width="1278" y="0" height="990"/></clipPath></defs><rect x="-150" width="1800" fill="#ffffff" y="-149.999993" height="1799.99992" fill-opacity="1"/><rect x="-150" width="1800" fill="#ffffff" y="-149.999993" height="1799.99992" fill-opacity="1"/><g mask="url(#dc84dd48cd)"><g transform="matrix(1, 0, 0, 1, 111, 289)"><g clip-path="url(#7155ccbf45)"><g clip-path="url(#2d11edbadd)"><g transform="matrix(1, 0, 0, 1, 0, 0.000000000000113687)"><g clip-path="url(#4c5cf7d547)"><g fill="#ff751f" fill-opacity="1"><g transform="translate(1.566591, 739.392157)"><g><path d="M 530.234375 7.390625 L 97 -539.46875 L 97 -172.734375 C 97 -135.171875 99.460938 -105.613281 104.390625 -84.0625 C 109.316406 -62.507812 117.015625 -46.5 127.484375 -36.03125 C 137.953125 -25.5625 151.191406 -17.863281 167.203125 -12.9375 L 167.203125 0 L 43.421875 0 L 43.421875 -12.9375 C 58.816406 -17.863281 68.820312 -28.175781 73.4375 -43.875 C 78.050781 -59.582031 80.359375 -84.0625 80.359375 -117.3125 L 80.359375 -529.3125 C 80.359375 -562.5625 77.28125 -587.035156 71.125 -602.734375 C 64.96875 -618.441406 52.035156 -628.757812 32.328125 -633.6875 L 32.328125 -646.625 L 136.71875 -646.625 L 524.6875 -160.734375 L 524.6875 -473.890625 C 524.6875 -511.453125 522.222656 -541.007812 517.296875 -562.5625 C 512.367188 -584.113281 504.671875 -600.125 494.203125 -610.59375 C 483.734375 -621.0625 470.492188 -628.757812 454.484375 -633.6875 L 454.484375 -646.625 L 579.1875 -646.625 L 579.1875 -633.6875 C 563.789062 -628.757812 553.78125 -618.441406 549.15625 -602.734375 C 544.539062 -587.035156 542.234375 -562.5625 542.234375 -529.3125 L 542.234375 7.390625 Z M 530.234375 7.390625 "/></g></g></g><g fill="#ff751f" fill-opacity="1"><g transform="translate(613.093904, 739.392157)"><g><path d="M 50.8125 0 L 50.8125 -10.15625 C 59.425781 -12.625 66.503906 -16.78125 72.046875 -22.625 C 77.585938 -28.476562 81.585938 -38.640625 84.046875 -53.109375 C 86.515625 -67.585938 87.75 -88.988281 87.75 -117.3125 L 87.75 -529.3125 C 87.75 -557.632812 86.515625 -579.03125 84.046875 -593.5 C 81.585938 -607.976562 77.585938 -618.296875 72.046875 -624.453125 C 66.503906 -630.609375 59.425781 -634.613281 50.8125 -636.46875 L 50.8125 -646.625 L 261.421875 -646.625 C 321.773438 -646.625 374.117188 -638.15625 418.453125 -621.21875 C 462.796875 -604.28125 499.59375 -581.335938 528.84375 -552.390625 C 558.09375 -523.453125 580.109375 -490.195312 594.890625 -452.625 C 609.671875 -415.0625 617.0625 -375.648438 617.0625 -334.390625 C 617.0625 -287.585938 609.363281 -243.863281 593.96875 -203.21875 C 578.570312 -162.570312 556.25 -127.007812 527 -96.53125 C 497.75 -66.050781 462.644531 -42.34375 421.6875 -25.40625 C 380.738281 -8.46875 334.707031 0 283.59375 0 Z M 139.484375 -80.359375 C 139.484375 -58.804688 143.175781 -42.179688 150.5625 -30.484375 C 157.957031 -18.785156 174.28125 -12.9375 199.53125 -12.9375 L 286.359375 -12.9375 C 374.421875 -12.9375 441.851562 -38.492188 488.65625 -89.609375 C 535.46875 -140.722656 558.875 -213.082031 558.875 -306.6875 C 558.875 -351.644531 551.484375 -393.828125 536.703125 -433.234375 C 521.921875 -472.648438 500.363281 -507.445312 472.03125 -537.625 C 443.707031 -567.800781 409.222656 -591.507812 368.578125 -608.75 C 327.929688 -625.988281 281.742188 -634.609375 230.015625 -634.609375 L 139.484375 -634.609375 Z M 139.484375 -80.359375 "/></g></g></g></g></g></g></g></g></g><g fill="#000000" fill-opacity="1"><g transform="translate(17.812532, 829.012877)"><g><path d="M 167.53125 2.328125 L 30.640625 -170.453125 L 30.640625 -54.578125 C 30.640625 -42.710938 31.414062 -33.375 32.96875 -26.5625 C 34.53125 -19.75 36.960938 -14.6875 40.265625 -11.375 C 43.578125 -8.070312 47.765625 -5.644531 52.828125 -4.09375 L 52.828125 0 L 13.71875 0 L 13.71875 -4.09375 C 18.582031 -5.644531 21.742188 -8.898438 23.203125 -13.859375 C 24.660156 -18.828125 25.390625 -26.5625 25.390625 -37.0625 L 25.390625 -167.25 C 25.390625 -177.75 24.414062 -185.476562 22.46875 -190.4375 C 20.53125 -195.40625 16.445312 -198.664062 10.21875 -200.21875 L 10.21875 -204.3125 L 43.203125 -204.3125 L 165.78125 -50.78125 L 165.78125 -149.734375 C 165.78125 -161.597656 165 -170.9375 163.4375 -177.75 C 161.882812 -184.5625 159.453125 -189.617188 156.140625 -192.921875 C 152.835938 -196.234375 148.660156 -198.664062 143.609375 -200.21875 L 143.609375 -204.3125 L 183 -204.3125 L 183 -200.21875 C 178.132812 -198.664062 174.972656 -195.40625 173.515625 -190.4375 C 172.054688 -185.476562 171.328125 -177.75 171.328125 -167.25 L 171.328125 2.328125 Z M 167.53125 2.328125 "/></g></g></g><g fill="#000000" fill-opacity="1"><g transform="translate(211.035135, 829.012877)"><g><path d="M 78.21875 2.921875 C 70.050781 2.921875 61.925781 1.460938 53.84375 -1.453125 C 45.769531 -4.378906 38.328125 -8.757812 31.515625 -14.59375 C 24.710938 -20.425781 19.265625 -27.722656 15.171875 -36.484375 C 11.085938 -45.242188 9.046875 -55.554688 9.046875 -67.421875 C 9.046875 -79.878906 11.234375 -91.066406 15.609375 -100.984375 C 19.992188 -110.910156 25.878906 -119.375 33.265625 -126.375 C 40.660156 -133.382812 48.882812 -138.738281 57.9375 -142.4375 C 66.988281 -146.132812 76.28125 -147.984375 85.8125 -147.984375 C 99.039062 -147.984375 110.128906 -145.351562 119.078125 -140.09375 C 128.035156 -134.84375 134.800781 -128.226562 139.375 -120.25 C 143.945312 -112.269531 146.234375 -104 146.234375 -95.4375 L 35.609375 -95.4375 C 35.410156 -93.882812 35.265625 -92.328125 35.171875 -90.765625 C 35.078125 -89.210938 35.03125 -87.660156 35.03125 -86.109375 C 35.03125 -73.453125 37.507812 -62.160156 42.46875 -52.234375 C 47.425781 -42.316406 54.429688 -34.582031 63.484375 -29.03125 C 72.535156 -23.488281 83.1875 -20.71875 95.4375 -20.71875 C 106.332031 -20.71875 115.960938 -22.859375 124.328125 -27.140625 C 132.703125 -31.421875 139.90625 -36.96875 145.9375 -43.78125 L 148.5625 -40.859375 C 144.082031 -34.046875 138.535156 -27.28125 131.921875 -20.5625 C 125.304688 -13.851562 117.523438 -8.257812 108.578125 -3.78125 C 99.628906 0.6875 89.507812 2.921875 78.21875 2.921875 Z M 35.90625 -99.53125 L 116.75 -99.53125 C 115.582031 -107.507812 113.097656 -114.753906 109.296875 -121.265625 C 105.503906 -127.785156 100.835938 -132.992188 95.296875 -136.890625 C 89.753906 -140.785156 83.578125 -142.734375 76.765625 -142.734375 C 68.585938 -142.921875 61.675781 -140.972656 56.03125 -136.890625 C 50.394531 -132.804688 45.921875 -127.453125 42.609375 -120.828125 C 39.304688 -114.210938 37.070312 -107.113281 35.90625 -99.53125 Z M 35.90625 -99.53125 "/></g></g></g><g fill="#000000" fill-opacity="1"><g transform="translate(366.897497, 829.012877)"><g><path d="M 86.984375 2.921875 C 77.441406 2.921875 68.050781 1.507812 58.8125 -1.3125 C 49.570312 -4.132812 41.203125 -8.507812 33.703125 -14.4375 C 26.210938 -20.375 20.226562 -27.867188 15.75 -36.921875 C 11.28125 -45.972656 9.046875 -56.722656 9.046875 -69.171875 C 9.046875 -81.046875 11.1875 -91.796875 15.46875 -101.421875 C 19.75 -111.054688 25.585938 -119.328125 32.984375 -126.234375 C 40.378906 -133.140625 48.742188 -138.488281 58.078125 -142.28125 C 67.421875 -146.082031 77.054688 -147.984375 86.984375 -147.984375 C 96.128906 -147.984375 105.222656 -146.617188 114.265625 -143.890625 C 123.316406 -141.171875 131.6875 -136.84375 139.375 -130.90625 C 147.0625 -124.96875 153.191406 -117.425781 157.765625 -108.28125 C 162.335938 -99.132812 164.625 -88.140625 164.625 -75.296875 C 164.625 -62.847656 162.238281 -51.757812 157.46875 -42.03125 C 152.695312 -32.300781 146.46875 -24.128906 138.78125 -17.515625 C 131.09375 -10.898438 122.675781 -5.835938 113.53125 -2.328125 C 104.394531 1.171875 95.546875 2.921875 86.984375 2.921875 Z M 38.234375 -91.0625 C 38.234375 -82.5 39.5 -73.160156 42.03125 -63.046875 C 44.5625 -52.929688 48.304688 -43.347656 53.265625 -34.296875 C 58.222656 -25.242188 64.398438 -17.847656 71.796875 -12.109375 C 79.191406 -6.367188 87.65625 -3.5 97.1875 -3.5 C 106.726562 -3.5 114.269531 -5.929688 119.8125 -10.796875 C 125.363281 -15.660156 129.304688 -21.882812 131.640625 -29.46875 C 133.972656 -37.0625 135.140625 -44.945312 135.140625 -53.125 C 135.140625 -62.457031 133.628906 -72.425781 130.609375 -83.03125 C 127.597656 -93.644531 123.316406 -103.617188 117.765625 -112.953125 C 112.222656 -122.296875 105.5625 -129.738281 97.78125 -135.28125 C 90 -140.832031 81.4375 -143.117188 72.09375 -142.140625 C 63.726562 -141.359375 57.0625 -138.488281 52.09375 -133.53125 C 47.132812 -128.570312 43.582031 -122.34375 41.4375 -114.84375 C 39.300781 -107.351562 38.234375 -99.425781 38.234375 -91.0625 Z M 38.234375 -91.0625 "/></g></g></g><g fill="#000000" fill-opacity="1"><g transform="translate(543.492174, 829.012877)"><g><path d="M 16.046875 0 L 16.046875 -3.203125 C 18.773438 -3.984375 21.015625 -5.296875 22.765625 -7.140625 C 24.515625 -8.992188 25.78125 -12.207031 26.5625 -16.78125 C 27.34375 -21.351562 27.734375 -28.113281 27.734375 -37.0625 L 27.734375 -167.25 C 27.734375 -176.195312 27.34375 -182.957031 26.5625 -187.53125 C 25.78125 -192.101562 24.515625 -195.359375 22.765625 -197.296875 C 21.015625 -199.242188 18.773438 -200.515625 16.046875 -201.109375 L 16.046875 -204.3125 L 82.59375 -204.3125 C 101.664062 -204.3125 118.207031 -201.632812 132.21875 -196.28125 C 146.226562 -190.9375 157.851562 -183.691406 167.09375 -174.546875 C 176.34375 -165.398438 183.300781 -154.890625 187.96875 -143.015625 C 192.632812 -131.148438 194.96875 -118.695312 194.96875 -105.65625 C 194.96875 -90.863281 192.535156 -77.046875 187.671875 -64.203125 C 182.804688 -51.367188 175.753906 -40.132812 166.515625 -30.5 C 157.273438 -20.863281 146.179688 -13.367188 133.234375 -8.015625 C 120.296875 -2.671875 105.753906 0 89.609375 0 Z M 44.078125 -25.390625 C 44.078125 -18.578125 45.242188 -13.320312 47.578125 -9.625 C 49.910156 -5.9375 55.066406 -4.09375 63.046875 -4.09375 L 90.484375 -4.09375 C 118.304688 -4.09375 139.609375 -12.164062 154.390625 -28.3125 C 169.179688 -44.457031 176.578125 -67.320312 176.578125 -96.90625 C 176.578125 -111.101562 174.242188 -124.425781 169.578125 -136.875 C 164.910156 -149.332031 158.097656 -160.328125 149.140625 -169.859375 C 140.191406 -179.398438 129.296875 -186.894531 116.453125 -192.34375 C 103.609375 -197.789062 89.015625 -200.515625 72.671875 -200.515625 L 44.078125 -200.515625 Z M 44.078125 -25.390625 "/></g></g></g><g fill="#000000" fill-opacity="1"><g transform="translate(753.059841, 829.012877)"><g><path d="M 81.4375 2.921875 C 73.457031 2.921875 65.378906 1.414062 57.203125 -1.59375 C 49.035156 -4.613281 41.546875 -9.09375 34.734375 -15.03125 C 27.921875 -20.96875 22.421875 -28.507812 18.234375 -37.65625 C 14.054688 -46.800781 11.96875 -57.503906 11.96875 -69.765625 C 11.96875 -84.941406 15.320312 -98.414062 22.03125 -110.1875 C 28.75 -121.957031 37.941406 -131.195312 49.609375 -137.90625 C 61.285156 -144.625 74.421875 -147.984375 89.015625 -147.984375 C 105.753906 -147.984375 119.226562 -143.265625 129.4375 -133.828125 C 139.65625 -124.390625 145.15625 -112.175781 145.9375 -97.1875 L 28.609375 -97.1875 C 27.441406 -91.738281 26.859375 -85.90625 26.859375 -79.6875 C 26.859375 -65.675781 29.628906 -53.414062 35.171875 -42.90625 C 40.710938 -32.394531 48.394531 -24.269531 58.21875 -18.53125 C 68.050781 -12.789062 79.390625 -9.921875 92.234375 -9.921875 C 104.097656 -9.921875 114.210938 -12.445312 122.578125 -17.5 C 130.953125 -22.5625 138.835938 -29.28125 146.234375 -37.65625 L 148.5625 -35.3125 C 140.394531 -25.195312 130.710938 -16.296875 119.515625 -8.609375 C 108.328125 -0.921875 95.632812 2.921875 81.4375 2.921875 Z M 29.1875 -100.703125 L 129.59375 -100.703125 C 129.007812 -104.398438 127.597656 -108.628906 125.359375 -113.390625 C 123.117188 -118.160156 119.957031 -122.78125 115.875 -127.25 C 111.789062 -131.726562 106.679688 -135.472656 100.546875 -138.484375 C 94.421875 -141.503906 87.175781 -143.015625 78.8125 -143.015625 C 66.351562 -143.015625 55.796875 -139.21875 47.140625 -131.625 C 38.484375 -124.039062 32.5 -113.734375 29.1875 -100.703125 Z M 29.1875 -100.703125 "/></g></g></g><g fill="#000000" fill-opacity="1"><g transform="translate(910.965315, 829.012877)"><g><path d="M 10.796875 0 L 10.796875 -3.203125 C 13.523438 -3.984375 15.765625 -5.296875 17.515625 -7.140625 C 19.265625 -8.992188 20.523438 -12.207031 21.296875 -16.78125 C 22.078125 -21.351562 22.46875 -28.113281 22.46875 -37.0625 L 22.46875 -104.203125 C 22.46875 -112.179688 22.128906 -118.113281 21.453125 -122 C 20.773438 -125.894531 19.554688 -128.664062 17.796875 -130.3125 C 16.046875 -131.96875 13.710938 -133.378906 10.796875 -134.546875 L 10.796875 -137.1875 L 35.609375 -147.984375 L 37.65625 -146.234375 L 37.65625 -121.421875 C 47.1875 -128.617188 57.351562 -134.84375 68.15625 -140.09375 C 78.957031 -145.351562 89.125 -147.984375 98.65625 -147.984375 C 121.03125 -147.984375 134.941406 -138.445312 140.390625 -119.375 C 150.117188 -127.15625 160.578125 -133.867188 171.765625 -139.515625 C 182.953125 -145.160156 193.609375 -147.984375 203.734375 -147.984375 C 218.710938 -147.984375 229.800781 -143.796875 237 -135.421875 C 244.195312 -127.054688 247.796875 -114.992188 247.796875 -99.234375 L 247.796875 -37.0625 C 247.796875 -28.113281 248.1875 -21.351562 248.96875 -16.78125 C 249.75 -12.207031 251.015625 -8.992188 252.765625 -7.140625 C 254.515625 -5.296875 256.753906 -3.984375 259.484375 -3.203125 L 259.484375 0 L 220.953125 0 L 220.953125 -3.203125 C 223.671875 -3.984375 225.90625 -5.296875 227.65625 -7.140625 C 229.414062 -8.992188 230.679688 -12.207031 231.453125 -16.78125 C 232.234375 -21.351562 232.625 -28.113281 232.625 -37.0625 L 232.625 -93.984375 C 232.625 -109.941406 229.460938 -121.664062 223.140625 -129.15625 C 216.816406 -136.644531 207.71875 -140.390625 195.84375 -140.390625 C 185.925781 -140.390625 176.34375 -137.90625 167.09375 -132.9375 C 157.851562 -127.976562 149.144531 -122.390625 140.96875 -116.171875 C 142.144531 -110.910156 142.734375 -105.265625 142.734375 -99.234375 L 142.734375 -37.0625 C 142.734375 -28.113281 143.117188 -21.351562 143.890625 -16.78125 C 144.671875 -12.207031 145.9375 -8.992188 147.6875 -7.140625 C 149.4375 -5.296875 151.675781 -3.984375 154.40625 -3.203125 L 154.40625 0 L 115.875 0 L 115.875 -3.203125 C 118.59375 -3.984375 120.828125 -5.296875 122.578125 -7.140625 C 124.335938 -8.992188 125.601562 -12.207031 126.375 -16.78125 C 127.15625 -21.351562 127.546875 -28.113281 127.546875 -37.0625 L 127.546875 -93.984375 C 127.546875 -109.941406 124.382812 -121.664062 118.0625 -129.15625 C 111.738281 -136.644531 102.640625 -140.390625 90.765625 -140.390625 C 81.234375 -140.390625 71.992188 -138.050781 63.046875 -133.375 C 54.097656 -128.707031 45.632812 -123.359375 37.65625 -117.328125 L 37.65625 -37.0625 C 37.65625 -28.113281 38.039062 -21.351562 38.8125 -16.78125 C 39.59375 -12.207031 40.859375 -8.992188 42.609375 -7.140625 C 44.359375 -5.296875 46.597656 -3.984375 49.328125 -3.203125 L 49.328125 0 Z M 10.796875 0 "/></g></g></g><g fill="#000000" fill-opacity="1"><g transform="translate(1178.616509, 829.012877)"><g><path d="M 86.984375 2.921875 C 78.023438 2.921875 69.070312 1.414062 60.125 -1.59375 C 51.175781 -4.613281 43.097656 -9.238281 35.890625 -15.46875 C 28.691406 -21.695312 22.90625 -29.53125 18.53125 -38.96875 C 14.15625 -48.40625 11.96875 -59.640625 11.96875 -72.671875 C 11.96875 -87.460938 15.421875 -100.5 22.328125 -111.78125 C 29.234375 -123.070312 38.425781 -131.925781 49.90625 -138.34375 C 61.382812 -144.769531 73.742188 -147.984375 86.984375 -147.984375 C 96.128906 -147.984375 105.078125 -146.472656 113.828125 -143.453125 C 122.585938 -140.441406 130.613281 -135.867188 137.90625 -129.734375 C 145.207031 -123.609375 151 -115.773438 155.28125 -106.234375 C 159.5625 -96.703125 161.703125 -85.421875 161.703125 -72.390625 C 161.703125 -59.929688 159.460938 -48.984375 154.984375 -39.546875 C 150.503906 -30.109375 144.566406 -22.273438 137.171875 -16.046875 C 129.785156 -9.828125 121.710938 -5.109375 112.953125 -1.890625 C 104.203125 1.316406 95.546875 2.921875 86.984375 2.921875 Z M 27.140625 -83.765625 C 27.140625 -73.835938 28.789062 -64.054688 32.09375 -54.421875 C 35.40625 -44.796875 40.078125 -36.09375 46.109375 -28.3125 C 52.148438 -20.53125 59.253906 -14.300781 67.421875 -9.625 C 75.597656 -4.957031 84.550781 -2.625 94.28125 -2.625 C 105.5625 -2.625 115.140625 -5.203125 123.015625 -10.359375 C 130.898438 -15.515625 136.929688 -22.46875 141.109375 -31.21875 C 145.296875 -39.976562 147.390625 -49.804688 147.390625 -60.703125 C 147.390625 -70.242188 145.734375 -79.878906 142.421875 -89.609375 C 139.117188 -99.335938 134.5 -108.238281 128.5625 -116.3125 C 122.632812 -124.382812 115.582031 -130.851562 107.40625 -135.71875 C 99.238281 -140.582031 90.289062 -143.015625 80.5625 -143.015625 C 69.082031 -143.015625 59.351562 -140.4375 51.375 -135.28125 C 43.394531 -130.125 37.359375 -123.070312 33.265625 -114.125 C 29.179688 -105.175781 27.140625 -95.054688 27.140625 -83.765625 Z M 27.140625 -83.765625 "/></g></g></g><g fill="#000000" fill-opacity="1"><g transform="translate(1353.450817, 829.012877)"><g><path d="M 67.421875 2.921875 C 54.578125 3.109375 43.4375 1.648438 34 -1.453125 C 24.5625 -4.566406 17.800781 -7.390625 13.71875 -9.921875 L 11.671875 -42.609375 L 14.015625 -43.203125 C 19.847656 -29.578125 27.820312 -19.257812 37.9375 -12.25 C 48.0625 -5.25 59.835938 -1.75 73.265625 -1.75 C 82.410156 -1.75 90.289062 -4.179688 96.90625 -9.046875 C 103.519531 -13.910156 106.828125 -21.304688 106.828125 -31.234375 C 106.828125 -37.066406 105.363281 -41.976562 102.4375 -45.96875 C 99.519531 -49.957031 95.726562 -53.21875 91.0625 -55.75 C 86.394531 -58.28125 81.382812 -60.421875 76.03125 -62.171875 C 70.675781 -63.921875 65.566406 -65.671875 60.703125 -67.421875 C 52.734375 -70.148438 45.289062 -72.972656 38.375 -75.890625 C 31.46875 -78.804688 25.921875 -82.84375 21.734375 -88 C 17.554688 -93.15625 15.46875 -100.207031 15.46875 -109.15625 C 15.46875 -117.132812 17.65625 -124.039062 22.03125 -129.875 C 26.414062 -135.71875 32.351562 -140.195312 39.84375 -143.3125 C 47.332031 -146.425781 55.648438 -147.984375 64.796875 -147.984375 C 75.691406 -147.984375 85.03125 -147.007812 92.8125 -145.0625 C 100.59375 -143.113281 106.53125 -141.265625 110.625 -139.515625 L 111.78125 -112.078125 L 109.453125 -111.5 C 105.171875 -122.394531 98.601562 -130.613281 89.75 -136.15625 C 80.894531 -141.707031 71.410156 -144.484375 61.296875 -144.484375 C 50.585938 -144.484375 42.070312 -142.144531 35.75 -137.46875 C 29.425781 -132.800781 26.265625 -126.1875 26.265625 -117.625 C 26.265625 -110.625 28.453125 -104.882812 32.828125 -100.40625 C 37.210938 -95.925781 42.660156 -92.320312 49.171875 -89.59375 C 55.691406 -86.875 62.164062 -84.445312 68.59375 -82.3125 C 73.84375 -80.5625 79.335938 -78.757812 85.078125 -76.90625 C 90.816406 -75.0625 96.164062 -72.675781 101.125 -69.75 C 106.09375 -66.832031 110.132812 -63.039062 113.25 -58.375 C 116.363281 -53.707031 117.921875 -47.867188 117.921875 -40.859375 C 117.921875 -31.710938 115.632812 -23.878906 111.0625 -17.359375 C 106.488281 -10.847656 100.359375 -5.890625 92.671875 -2.484375 C 84.984375 0.921875 76.566406 2.722656 67.421875 2.921875 Z M 67.421875 2.921875 "/></g></g></g></svg>